<?xml version="1.0" encoding="UTF-8"?>
<svg version="1.1" xmlns="http://www.w3.org/2000/svg" width="512" height="512">
<path d="M0 0 C4.21676405 1.92860465 7.08321791 4.82970138 10.296875 8.1015625 C11.18732513 8.99625748 11.18732513 8.99625748 12.09576416 9.9090271 C13.98526627 11.8096981 15.86768392 13.71721474 17.75 15.625 C19.03209065 16.91712468 20.31463761 18.20879676 21.59765625 19.5 C24.73708432 22.66144479 27.87017801 25.8290461 31 29 C29.45141416 32.68923736 27.21297509 35.03564641 24.39665794 37.84943771 C23.923294 38.32510935 23.44993005 38.80078098 22.96222174 39.29086691 C21.36872167 40.88967692 19.76816551 42.48123066 18.16757202 44.07293701 C17.01459924 45.22678165 15.86206594 46.38106557 14.70993578 47.53575158 C11.53790278 50.71226591 8.35965157 53.88249481 5.18037462 57.05175662 C1.75481706 60.46869331 -1.66497533 63.89139126 -5.08546448 67.31340027 C-11.0140843 73.2430698 -16.94636081 79.16906066 -22.88112259 85.0925827 C-31.46183145 93.65705126 -40.03702544 102.22702405 -48.61087482 110.79835895 C-62.52085475 124.70395947 -76.435297 138.60508594 -90.35253906 152.50341797 C-103.87343373 166.0059602 -117.3922304 179.51059725 -130.90820312 193.01806641 C-131.74104944 193.85038728 -132.57389576 194.68270815 -133.43197985 195.54025087 C-137.61002884 199.71568982 -141.78803653 203.89117008 -145.96602368 208.06667089 C-180.63761538 242.71752243 -215.31644676 277.36112158 -250 312 C-253.58817547 310.3112719 -255.90425192 308.34031762 -258.71710205 305.51667786 C-259.17631664 305.05846655 -259.63553123 304.60025524 -260.10866141 304.12815875 C-261.64396499 302.59380662 -263.1720107 301.05242647 -264.70019531 299.51098633 C-265.80065407 298.40832587 -266.90156165 297.30611319 -268.00288391 296.20431519 C-270.37336738 293.83089851 -272.74065925 291.45435918 -275.10553741 289.07535744 C-278.84994548 285.30866241 -282.6014475 281.54908686 -286.35394287 277.79045105 C-292.2944204 271.83858863 -298.23021002 265.88207609 -304.16397452 259.9235217 C-314.77363523 249.26959989 -325.38876795 238.62113767 -336.00924945 227.97800273 C-339.7328369 224.24604153 -343.45359592 220.51129019 -347.17205763 216.77422202 C-349.49480035 214.44077313 -351.81962433 212.10940582 -354.14494896 209.77853012 C-355.21646181 208.70357082 -356.28710334 207.62774212 -357.35676765 206.55094337 C-363.05815031 200.81240149 -368.83068453 195.23761944 -375 190 C-376.53937274 188.62463958 -378.06523417 187.23358401 -379.5625 185.8125 C-380.24441406 185.17957031 -380.92632812 184.54664063 -381.62890625 183.89453125 C-383 182 -383 182 -382.86352539 180.17553711 C-381.67429811 177.1794375 -379.86140354 175.54223983 -377.5546875 173.296875 C-376.64203125 172.39839844 -375.729375 171.49992188 -374.7890625 170.57421875 C-373.8181476 169.63235947 -372.84679068 168.69095564 -371.875 167.75 C-365.67055879 161.69044272 -359.57171027 155.65384864 -354 149 C-350.59109215 150.47369277 -348.37478178 152.37807411 -345.76055908 154.99893188 C-344.92205917 155.83468246 -344.08355927 156.67043304 -343.21965027 157.5315094 C-342.30830826 158.45004196 -341.39696625 159.36857452 -340.45800781 160.31494141 C-339.48249044 161.29102309 -338.50653212 162.26666426 -337.53016663 163.24189758 C-334.88342897 165.8880615 -332.24290245 168.54034587 -329.6034441 171.19376802 C-326.84302927 173.96668658 -324.07694845 176.73394125 -321.3114624 179.50180054 C-316.07663863 184.74284012 -310.84693394 189.98895703 -305.61904693 195.23691499 C-299.66654735 201.2117704 -293.70836677 207.18094679 -287.74970102 213.14965177 C-275.49346622 225.42679086 -263.24438858 237.71104648 -251 250 C-244.95770986 244.99511421 -239.43193844 239.56955366 -233.89503479 234.01528931 C-232.88275525 233.00344641 -231.87025575 231.99182353 -230.85755676 230.98040044 C-228.08914157 228.21421188 -225.32383833 225.44493087 -222.55905116 222.67511678 C-219.57186861 219.68360352 -216.58178398 216.69499339 -213.59205627 213.70602417 C-208.41709625 208.53158772 -203.24396587 203.35532793 -198.07208443 198.17781448 C-190.59446908 190.69206159 -183.11408397 183.2090815 -175.63302659 175.72676866 C-163.49468557 163.58624066 -151.35857798 151.44348258 -139.22387695 139.29931641 C-127.43826686 127.50452303 -115.65160375 115.71078357 -103.86352539 103.91845703 C-103.13653753 103.19120645 -102.40954968 102.46395587 -101.66053189 101.71466739 C-98.01333016 98.0661606 -94.36610775 94.41767449 -90.71887505 90.76919866 C-60.47604239 60.51600442 -30.23683512 30.25918846 0 0 Z " fill="#439F46" transform="translate(432,129)"/>
</svg>
