<svg width="25" height="24" viewBox="0 0 25 24" fill="none" xmlns="http://www.w3.org/2000/svg">
<g clip-path="url(#clip0_612_53)">
<path d="M17.3728 6H22.4821V8H20.4384V21C20.4384 21.2652 20.3307 21.5196 20.1391 21.7071C19.9474 21.8946 19.6875 22 19.4165 22H5.1105C4.83948 22 4.57957 21.8946 4.38793 21.7071C4.1963 21.5196 4.08864 21.2652 4.08864 21V8H2.04492V6H7.15421V3C7.15421 2.73478 7.26187 2.48043 7.45351 2.29289C7.64514 2.10536 7.90506 2 8.17607 2H16.3509C16.6219 2 16.8819 2.10536 17.0735 2.29289C17.2651 2.48043 17.3728 2.73478 17.3728 3V6ZM18.3946 8H6.13235V20H18.3946V8ZM9.19793 11H11.2416V17H9.19793V11ZM13.2854 11H15.3291V17H13.2854V11ZM9.19793 4V6H15.3291V4H9.19793Z" fill="#BA1F57"/>
</g>
<defs>
<clipPath id="clip0_612_53">
<rect width="24.5246" height="24" fill="white" transform="translate(0.000976562)"/>
</clipPath>
</defs>
</svg>
