<svg width="24" height="24" viewBox="0 0 24 24" fill="none" xmlns="http://www.w3.org/2000/svg">
<g clip-path="url(#clip0_612_58)">
<path d="M5.00098 19H6.41498L15.729 9.68599L14.315 8.27199L5.00098 17.586V19ZM21.001 21H3.00098V16.757L16.436 3.32199C16.6235 3.13452 16.8778 3.02921 17.143 3.02921C17.4081 3.02921 17.6624 3.13452 17.85 3.32199L20.679 6.15099C20.8664 6.33852 20.9718 6.59283 20.9718 6.85799C20.9718 7.12316 20.8664 7.37746 20.679 7.56499L9.24398 19H21.001V21ZM15.729 6.85799L17.143 8.27199L18.557 6.85799L17.143 5.44399L15.729 6.85799Z" fill="#43E466"/>
</g>
<defs>
<clipPath id="clip0_612_58">
<rect width="24" height="24" fill="white" transform="translate(0.000976562)"/>
</clipPath>
</defs>
</svg>
